<svg height="25" viewBox="0 0 20 20" width="25" xmlns="http://www.w3.org/2000/svg"><path d="m13.6705038 1.65775755c2.1028218-.49342115 4.1641726.2217626 5.1345079 1.43386117.8957201 1.11889262 1.3027975 2.28210626 1.1705839 3.9981672-.0952901 1.23681367-.5001511 2.15372746-1.2987472 3.16338708-.1472018.1861062-.3081329.3771166-.511002.608873-.1192898.1362761-.5709135.6441495-.5480287.6183066-.7991375.9024353-3.1552333 3.1631414-7.1032242 6.8188494-.2904115.2689114-.74681456.2675617-1.03554269-.0030623-3.38908981-3.1765836-5.58279224-5.2682805-6.58862714-6.2826239-1.85791886-1.8736353-2.56395473-2.962349-2.82055453-4.72060308-.2684298-1.83931471.24478199-3.3487886 1.39854784-4.52139435 1.08195844-1.0996258 3.01688282-1.50710751 4.92748579-1.11866108 1.11865997.22743578 2.31007229.95908546 3.600551 2.18011988 1.10074213-1.12874632 2.32683023-1.85909832 3.67405003-2.17521962z" fill="#e44232" stroke="#000000"/></svg>